<svg width="114" height="114" viewBox="0 0 114 114" fill="none" xmlns="http://www.w3.org/2000/svg">
<rect width="114" height="114" rx="57" fill="url(#paint0_linear_19_87)"/>
<g filter="url(#filter0_di_19_87)">
<path d="M38.2051 45.1367C39.5176 45.1367 40.8535 45.2539 42.2129 45.4883C43.3262 45.6758 44.123 45.9336 44.6035 46.2617C45.084 46.5898 45.3242 47.041 45.3242 47.6152C45.3242 47.9785 45.2363 48.2656 45.0605 48.4766C44.8848 48.6758 44.5039 48.9219 43.918 49.2148C43.2383 49.5664 42.8457 49.9824 42.7402 50.4629C42.6465 50.9316 42.5586 52.7715 42.4766 55.9824C42.4414 59.0879 42.4062 60.9512 42.3711 61.5723C42.3477 62.1934 42.2773 62.7969 42.1602 63.3828C41.8203 65.0938 41.1348 66.4355 40.1035 67.4082C39.2598 68.2051 38.1758 68.832 36.8516 69.2891C35.5273 69.7461 34.1328 69.9746 32.668 69.9746C31.3672 69.9746 30.0605 69.8047 28.748 69.4648C27.4473 69.125 26.3164 68.6562 25.3555 68.0586C24.5586 67.5664 23.9258 66.9043 23.457 66.0723C22.9883 65.2285 22.7539 64.332 22.7539 63.3828C22.7539 62.2109 23.123 61.2441 23.8613 60.4824C24.5996 59.709 25.5254 59.3223 26.6387 59.3223C27.7285 59.3223 28.6543 59.6445 29.416 60.2891C30.1777 60.9453 30.5586 61.7539 30.5586 62.7148C30.5586 62.9609 30.4883 63.3711 30.3477 63.9453C30.3242 64.0625 30.3125 64.1914 30.3125 64.332C30.3125 64.707 30.4473 65.0117 30.7168 65.2461C30.9863 65.4805 31.3438 65.5977 31.7891 65.5977C32.5742 65.5977 33.207 65.2461 33.6875 64.543C34.168 63.8398 34.4082 62.9141 34.4082 61.7656L34.3906 60.166L34.3555 55.8594C34.25 53.2461 34.168 51.7109 34.1094 51.2539C34.0625 50.7852 33.9336 50.4043 33.7227 50.1113C33.5469 49.877 33.3887 49.7246 33.248 49.6543C33.1191 49.584 32.7559 49.4727 32.1582 49.3203C31.877 49.2617 31.6367 49.0977 31.4375 48.8281C31.2383 48.5586 31.1387 48.2715 31.1387 47.9668C31.1387 47.334 31.3848 46.8301 31.877 46.4551C32.3809 46.0684 33.1953 45.7578 34.3203 45.5234C35.5742 45.2656 36.8691 45.1367 38.2051 45.1367ZM57.1191 51.9746C59.2637 51.9746 61.1445 52.5312 62.7617 53.6445C63.9219 54.4414 64.8535 55.4785 65.5566 56.7559C66.2832 58.0918 66.6465 59.4863 66.6465 60.9395C66.6465 63.4824 65.4805 65.6445 63.1484 67.4258C60.9219 69.125 58.373 69.9746 55.502 69.9746C52.7012 69.9746 50.4336 69.1777 48.6992 67.584C47.0117 66.0371 46.168 64.0215 46.168 61.5371C46.168 58.7715 47.1992 56.5098 49.2617 54.752C51.418 52.9004 54.0371 51.9746 57.1191 51.9746ZM55.7129 56.0352C55.1973 56.0352 54.7812 56.2285 54.4648 56.6152C54.1602 56.9902 54.0078 57.4941 54.0078 58.127C54.0078 58.8301 54.1367 59.791 54.3945 61.0098C54.6641 62.2168 54.9805 63.2891 55.3438 64.2266C55.707 65.1875 56.2988 65.668 57.1191 65.668C58.1621 65.668 58.6836 65.0059 58.6836 63.6816C58.6836 62.6973 58.5488 61.5781 58.2793 60.3242C58.0215 59.0703 57.7051 58.0508 57.3301 57.2656C56.9434 56.4688 56.4043 56.0586 55.7129 56.0352ZM77.4922 46.5605L77.2637 53.416C77.2637 53.5801 77.2637 53.709 77.2637 53.8027C77.2637 54.0371 77.3398 54.1543 77.4922 54.1543C77.5742 54.1543 77.8086 53.9961 78.1953 53.6797C79.5664 52.5547 81.0781 51.9922 82.7305 51.9922C84.3711 51.9922 85.8184 52.584 87.0723 53.7676C88.6426 55.2559 89.4277 57.1953 89.4277 59.5859C89.4277 62.9961 88.1562 65.7207 85.6133 67.7598C83.7852 69.2363 81.6406 69.9746 79.1797 69.9746C77.9609 69.9746 76.8594 69.8164 75.875 69.5C74.9023 69.1953 73.8359 68.668 72.6758 67.918C72.5 67.8125 72.3594 67.7598 72.2539 67.7598C72.125 67.7598 71.7617 67.8711 71.1641 68.0938C70.8594 68.2109 70.502 68.2695 70.0918 68.2695C69.3652 68.2695 69.002 68.0352 69.002 67.5664C69.002 67.4141 69.0312 67.2383 69.0898 67.0391C69.3242 66.2773 69.4824 65.334 69.5645 64.209C69.6465 63.084 69.6875 61.3027 69.6875 58.8652V54.0137C69.6875 52.8066 69.6406 52.0508 69.5469 51.7461C69.4531 51.4414 69.1895 51.2012 68.7559 51.0254C68.1465 50.7676 67.7246 50.5156 67.4902 50.2695C67.2559 50.0117 67.1387 49.6895 67.1387 49.3027C67.1387 48.5176 67.9766 47.75 69.6523 47C70.5664 46.6016 71.7031 46.2559 73.0625 45.9629C74.4336 45.6582 75.6055 45.5059 76.5781 45.5059C77.1992 45.5059 77.5039 45.8574 77.4922 46.5605ZM79.0039 57.2832C78.3711 57.2832 77.9141 57.5 77.6328 57.9336C77.4102 58.2617 77.2988 58.9297 77.2988 59.9375C77.2988 62.6914 77.3926 64.5488 77.5801 65.5098C77.7441 66.4004 78.2422 66.8457 79.0742 66.8457C79.9297 66.8457 80.5801 66.4824 81.0254 65.7559C81.4707 65.0293 81.6934 63.9746 81.6934 62.5918C81.6934 60.5527 81.3184 59.0645 80.5684 58.127C80.1348 57.5879 79.6133 57.3066 79.0039 57.2832Z" fill="white"/>
</g>
<defs>
<filter id="filter0_di_19_87" x="18.7539" y="45.1367" width="74.6738" height="32.8379" filterUnits="userSpaceOnUse" color-interpolation-filters="sRGB">
<feFlood flood-opacity="0" result="BackgroundImageFix"/>
<feColorMatrix in="SourceAlpha" type="matrix" values="0 0 0 0 0 0 0 0 0 0 0 0 0 0 0 0 0 0 127 0" result="hardAlpha"/>
<feOffset dy="4"/>
<feGaussianBlur stdDeviation="2"/>
<feComposite in2="hardAlpha" operator="out"/>
<feColorMatrix type="matrix" values="0 0 0 0 0 0 0 0 0 0 0 0 0 0 0 0 0 0 0.25 0"/>
<feBlend mode="normal" in2="BackgroundImageFix" result="effect1_dropShadow_19_87"/>
<feBlend mode="normal" in="SourceGraphic" in2="effect1_dropShadow_19_87" result="shape"/>
<feColorMatrix in="SourceAlpha" type="matrix" values="0 0 0 0 0 0 0 0 0 0 0 0 0 0 0 0 0 0 127 0" result="hardAlpha"/>
<feOffset dy="4"/>
<feGaussianBlur stdDeviation="2"/>
<feComposite in2="hardAlpha" operator="arithmetic" k2="-1" k3="1"/>
<feColorMatrix type="matrix" values="0 0 0 0 0 0 0 0 0 0 0 0 0 0 0 0 0 0 0.25 0"/>
<feBlend mode="normal" in2="shape" result="effect2_innerShadow_19_87"/>
</filter>
<linearGradient id="paint0_linear_19_87" x1="0" y1="57" x2="114" y2="57" gradientUnits="userSpaceOnUse">
<stop stop-color="#5D6AFC"/>
<stop offset="1" stop-color="#373F96"/>
</linearGradient>
</defs>
</svg>
