<?xml version="1.0" ?>
<!-- Uploaded to: SVG Repo, www.svgrepo.com, Generator: SVG Repo Mixer Tools -->
<svg width="800px" height="800px" viewBox="0 0 128 128" xmlns="http://www.w3.org/2000/svg">
<defs>
<style>.cls-1{fill:#2e2f42;}</style>
</defs>
<title/>
<g data-name="Layer 2" id="Layer_2">
<g id="Export">
<path class="cls-1" d="M64,3A61,61,0,1,1,3,64,61.06,61.06,0,0,1,64,3m0-3a64,64,0,1,0,64,64A64,64,0,0,0,64,0Z"/>
<path class="cls-1" d="M51.13,59.24a1.51,1.51,0,0,1-1.32-.79,6.39,6.39,0,0,0-11.27,0A1.5,1.5,0,0,1,35.89,57a9.39,9.39,0,0,1,16.56,0,1.5,1.5,0,0,1-.61,2A1.53,1.53,0,0,1,51.13,59.24Z"/>
<path class="cls-1" d="M79,59.24A1.51,1.51,0,0,1,77.63,57a9.39,9.39,0,0,1,16.56,0,1.5,1.5,0,1,1-2.64,1.42,6.39,6.39,0,0,0-11.27,0A1.51,1.51,0,0,1,79,59.24Z"/>
<path class="cls-1" d="M64,103.07c-6.33,0-11.75-4.07-12.61-9.46a2,2,0,0,1,0-.23V75.83a1.5,1.5,0,0,1,1.5-1.5H75.13a1.5,1.5,0,0,1,1.5,1.5V93.38a2,2,0,0,1,0,.23C75.75,99,70.33,103.07,64,103.07Zm-9.63-9.82c.69,3.89,4.8,6.82,9.63,6.82s8.94-2.93,9.63-6.82V77.33H54.37Zm20.76.13h0Z"/>
</g>
</g>
</svg>