<svg width="150" height="150" viewBox="0 0 150 150" fill="none" xmlns="http://www.w3.org/2000/svg">
<rect width="150" height="150" rx="75" fill="white"/>
<g filter="url(#filter0_di_8_28)">
<path d="M50.2734 59.0156C52.0234 59.0156 53.8047 59.1719 55.6172 59.4844C57.1016 59.7344 58.1641 60.0781 58.8047 60.5156C59.4453 60.9531 59.7656 61.5547 59.7656 62.3203C59.7656 62.8047 59.6484 63.1875 59.4141 63.4688C59.1797 63.7344 58.6719 64.0625 57.8906 64.4531C56.9844 64.9219 56.4609 65.4766 56.3203 66.1172C56.1953 66.7422 56.0781 69.1953 55.9688 73.4766C55.9219 77.6172 55.875 80.1016 55.8281 80.9297C55.7969 81.7578 55.7031 82.5625 55.5469 83.3438C55.0938 85.625 54.1797 87.4141 52.8047 88.7109C51.6797 89.7734 50.2344 90.6094 48.4688 91.2188C46.7031 91.8281 44.8438 92.1328 42.8906 92.1328C41.1562 92.1328 39.4141 91.9062 37.6641 91.4531C35.9297 91 34.4219 90.375 33.1406 89.5781C32.0781 88.9219 31.2344 88.0391 30.6094 86.9297C29.9844 85.8047 29.6719 84.6094 29.6719 83.3438C29.6719 81.7812 30.1641 80.4922 31.1484 79.4766C32.1328 78.4453 33.3672 77.9297 34.8516 77.9297C36.3047 77.9297 37.5391 78.3594 38.5547 79.2188C39.5703 80.0938 40.0781 81.1719 40.0781 82.4531C40.0781 82.7812 39.9844 83.3281 39.7969 84.0938C39.7656 84.25 39.75 84.4219 39.75 84.6094C39.75 85.1094 39.9297 85.5156 40.2891 85.8281C40.6484 86.1406 41.125 86.2969 41.7188 86.2969C42.7656 86.2969 43.6094 85.8281 44.25 84.8906C44.8906 83.9531 45.2109 82.7188 45.2109 81.1875L45.1875 79.0547L45.1406 73.3125C45 69.8281 44.8906 67.7812 44.8125 67.1719C44.75 66.5469 44.5781 66.0391 44.2969 65.6484C44.0625 65.3359 43.8516 65.1328 43.6641 65.0391C43.4922 64.9453 43.0078 64.7969 42.2109 64.5938C41.8359 64.5156 41.5156 64.2969 41.25 63.9375C40.9844 63.5781 40.8516 63.1953 40.8516 62.7891C40.8516 61.9453 41.1797 61.2734 41.8359 60.7734C42.5078 60.2578 43.5938 59.8438 45.0938 59.5312C46.7656 59.1875 48.4922 59.0156 50.2734 59.0156ZM75.4922 68.1328C78.3516 68.1328 80.8594 68.875 83.0156 70.3594C84.5625 71.4219 85.8047 72.8047 86.7422 74.5078C87.7109 76.2891 88.1953 78.1484 88.1953 80.0859C88.1953 83.4766 86.6406 86.3594 83.5312 88.7344C80.5625 91 77.1641 92.1328 73.3359 92.1328C69.6016 92.1328 66.5781 91.0703 64.2656 88.9453C62.0156 86.8828 60.8906 84.1953 60.8906 80.8828C60.8906 77.1953 62.2656 74.1797 65.0156 71.8359C67.8906 69.3672 71.3828 68.1328 75.4922 68.1328ZM73.6172 73.5469C72.9297 73.5469 72.375 73.8047 71.9531 74.3203C71.5469 74.8203 71.3438 75.4922 71.3438 76.3359C71.3438 77.2734 71.5156 78.5547 71.8594 80.1797C72.2188 81.7891 72.6406 83.2188 73.125 84.4688C73.6094 85.75 74.3984 86.3906 75.4922 86.3906C76.8828 86.3906 77.5781 85.5078 77.5781 83.7422C77.5781 82.4297 77.3984 80.9375 77.0391 79.2656C76.6953 77.5938 76.2734 76.2344 75.7734 75.1875C75.2578 74.125 74.5391 73.5781 73.6172 73.5469ZM102.656 60.9141L102.352 70.0547C102.352 70.2734 102.352 70.4453 102.352 70.5703C102.352 70.8828 102.453 71.0391 102.656 71.0391C102.766 71.0391 103.078 70.8281 103.594 70.4062C105.422 68.9062 107.438 68.1562 109.641 68.1562C111.828 68.1562 113.758 68.9453 115.43 70.5234C117.523 72.5078 118.57 75.0938 118.57 78.2812C118.57 82.8281 116.875 86.4609 113.484 89.1797C111.047 91.1484 108.188 92.1328 104.906 92.1328C103.281 92.1328 101.812 91.9219 100.5 91.5C99.2031 91.0938 97.7812 90.3906 96.2344 89.3906C96 89.25 95.8125 89.1797 95.6719 89.1797C95.5 89.1797 95.0156 89.3281 94.2188 89.625C93.8125 89.7812 93.3359 89.8594 92.7891 89.8594C91.8203 89.8594 91.3359 89.5469 91.3359 88.9219C91.3359 88.7188 91.375 88.4844 91.4531 88.2188C91.7656 87.2031 91.9766 85.9453 92.0859 84.4453C92.1953 82.9453 92.25 80.5703 92.25 77.3203V70.8516C92.25 69.2422 92.1875 68.2344 92.0625 67.8281C91.9375 67.4219 91.5859 67.1016 91.0078 66.8672C90.1953 66.5234 89.6328 66.1875 89.3203 65.8594C89.0078 65.5156 88.8516 65.0859 88.8516 64.5703C88.8516 63.5234 89.9688 62.5 92.2031 61.5C93.4219 60.9688 94.9375 60.5078 96.75 60.1172C98.5781 59.7109 100.141 59.5078 101.438 59.5078C102.266 59.5078 102.672 59.9766 102.656 60.9141ZM104.672 75.2109C103.828 75.2109 103.219 75.5 102.844 76.0781C102.547 76.5156 102.398 77.4062 102.398 78.75C102.398 82.4219 102.523 84.8984 102.773 86.1797C102.992 87.3672 103.656 87.9609 104.766 87.9609C105.906 87.9609 106.773 87.4766 107.367 86.5078C107.961 85.5391 108.258 84.1328 108.258 82.2891C108.258 79.5703 107.758 77.5859 106.758 76.3359C106.18 75.6172 105.484 75.2422 104.672 75.2109Z" fill="#373F96"/>
</g>
<defs>
<filter id="filter0_di_8_28" x="25.6719" y="59.0156" width="96.8984" height="41.1172" filterUnits="userSpaceOnUse" color-interpolation-filters="sRGB">
<feFlood flood-opacity="0" result="BackgroundImageFix"/>
<feColorMatrix in="SourceAlpha" type="matrix" values="0 0 0 0 0 0 0 0 0 0 0 0 0 0 0 0 0 0 127 0" result="hardAlpha"/>
<feOffset dy="4"/>
<feGaussianBlur stdDeviation="2"/>
<feComposite in2="hardAlpha" operator="out"/>
<feColorMatrix type="matrix" values="0 0 0 0 0 0 0 0 0 0 0 0 0 0 0 0 0 0 0.25 0"/>
<feBlend mode="normal" in2="BackgroundImageFix" result="effect1_dropShadow_8_28"/>
<feBlend mode="normal" in="SourceGraphic" in2="effect1_dropShadow_8_28" result="shape"/>
<feColorMatrix in="SourceAlpha" type="matrix" values="0 0 0 0 0 0 0 0 0 0 0 0 0 0 0 0 0 0 127 0" result="hardAlpha"/>
<feOffset dy="4"/>
<feGaussianBlur stdDeviation="2"/>
<feComposite in2="hardAlpha" operator="arithmetic" k2="-1" k3="1"/>
<feColorMatrix type="matrix" values="0 0 0 0 0 0 0 0 0 0 0 0 0 0 0 0 0 0 0.25 0"/>
<feBlend mode="normal" in2="shape" result="effect2_innerShadow_8_28"/>
</filter>
</defs>
</svg>
